<svg xmlns="http://www.w3.org/2000/svg" viewBox="0 0 512 512">
  <circle cx="256" cy="256" r="256" fill="none" stroke="#000000" stroke-width="16"/>
  <path d="M246 356c-5-18 7-32 18-47 4-6 9-13 11-19 3-6 0-15-6-19-5-4-11-3-16-2-15 4-24 11-36 16-6 2-11-4-11-11 0-6 2-14 7-18 19-15 49-16 70-6 10 5 19 13 22 24 3 12 0 24-5 36-5 12-11 23-19 33-3 4-6 6-6 11l12 22c3 7-3 15-9 18-12 7-26-3-32-15l-15-29zm67-116c-12 1-25-3-35-11-8-6-17-14-17-24 1-8 8-13 15-18 11-6 22-12 34-14 7-2 15-1 19 6 4 6 0 14-3 20-2 4-5 7-8 11-2 2-1 6 2 5 11 1 23 4 31 12 5 5 7 13 6 20-2 7-9 13-15 17-10 7-22 7-34 6z" fill="none" stroke="#000000" stroke-width="16"/>
</svg>